<svg width="48" height="52" viewBox="0 0 48 52" fill="none" xmlns="http://www.w3.org/2000/svg">
<rect width="47.5" height="52" rx="3" fill="#1A1A1A"/>
<path d="M36.125 8H11.375C9.575 8 8 9.575 8 11.375V40.625C8 42.425 9.575 44 11.375 44H36.125C37.925 44 39.5 42.425 39.5 40.625V11.375C39.5 9.575 37.925 8 36.125 8ZM17 38.6C17 39.05 16.55 39.5 16.1 39.5H13.4C12.95 39.5 12.5 39.05 12.5 38.6V35.9C12.5 35.45 12.95 35 13.4 35H16.1C16.55 35 17 35.45 17 35.9V38.6ZM17 29.6C17 30.05 16.55 30.5 16.1 30.5H13.4C12.95 30.5 12.5 30.05 12.5 29.6V26.9C12.5 26.45 12.95 26 13.4 26H16.1C16.55 26 17 26.45 17 26.9V29.6ZM26 38.6C26 39.05 25.55 39.5 25.1 39.5H22.4C21.95 39.5 21.5 39.05 21.5 38.6V35.9C21.5 35.45 21.95 35 22.4 35H25.1C25.55 35 26 35.45 26 35.9V38.6ZM26 29.6C26 30.05 25.55 30.5 25.1 30.5H22.4C21.95 30.5 21.5 30.05 21.5 29.6V26.9C21.5 26.45 21.95 26 22.4 26H25.1C25.55 26 26 26.45 26 26.9V29.6ZM35 38.6C35 39.05 34.55 39.5 34.1 39.5H31.4C30.95 39.5 30.5 39.05 30.5 38.6V26.9C30.5 26.45 30.95 26 31.4 26H34.1C34.55 26 35 26.45 35 26.9V38.6ZM35 20.6C35 21.05 34.55 21.5 34.1 21.5H13.4C12.95 21.5 12.5 21.05 12.5 20.6V13.4C12.5 12.95 12.95 12.5 13.4 12.5H34.1C34.55 12.5 35 12.95 35 13.4V20.6Z" fill="white"/>
</svg>
