<svg width="798" height="532" viewBox="0 0 798 532" fill="none" xmlns="http://www.w3.org/2000/svg">
<g clip-path="url(#clip0_15_1260)">
<g clip-path="url(#clip1_15_1260)">
<rect width="798" height="532" fill="#1A1A1A"/>
<g clip-path="url(#clip2_15_1260)">
<rect width="6" height="750" transform="translate(399.33 -156) rotate(45)" fill="#BD1C4C"/>
<rect width="18" height="750" transform="translate(414.886 -140.444) rotate(45)" fill="#BD1C4C"/>
<rect width="12" height="750" transform="translate(438.928 -116.402) rotate(45)" fill="#BD1C4C"/>
</g>
<g clip-path="url(#clip3_15_1260)">
<rect width="12" height="750" transform="translate(881.33 208) rotate(45)" fill="#BD1C4C"/>
<rect width="18" height="750" transform="translate(901.129 227.799) rotate(45)" fill="#BD1C4C"/>
<rect width="6" height="750" transform="translate(925.171 251.841) rotate(45)" fill="#BD1C4C"/>
</g>
</g>
<rect x="322.814" y="139.618" width="150" height="137.25" rx="4" transform="rotate(-1 322.814 139.618)" fill="white"/>
<mask id="mask0_15_1260" style="mask-type:luminance" maskUnits="userSpaceOnUse" x="339" y="156" width="120" height="101">
<path d="M456.47 156.955L339.821 158.991L341.53 256.892L458.179 254.856L456.47 156.955Z" fill="white"/>
</mask>
<g mask="url(#mask0_15_1260)">
<path d="M399.745 249.625C428.506 249.123 451.536 232.396 451.184 212.264C450.833 192.131 427.233 176.218 398.473 176.72C369.712 177.222 346.682 193.949 347.034 214.082C347.385 234.214 370.985 250.127 399.745 249.625Z" fill="#1A1A1A"/>
<path d="M348.666 169.701C348.61 166.494 352.047 164.429 354.853 165.984L397.459 189.601C400.264 191.156 400.334 195.164 397.585 196.816L355.829 221.906C353.079 223.558 349.573 221.614 349.517 218.407L348.666 169.701Z" fill="#1A1A1A"/>
<path d="M440.966 164.154C443.715 162.502 447.222 164.446 447.278 167.653L448.128 216.359C448.184 219.566 444.747 221.632 441.942 220.076L399.336 196.459C396.53 194.904 396.46 190.896 399.21 189.244L440.966 164.154Z" fill="#1A1A1A"/>
<path d="M415.829 238.06L401.482 229.759L402.928 226.633C403.169 227.062 403.343 227.509 403.451 227.974C403.56 228.472 403.619 228.971 403.628 229.471C403.682 230.704 403.553 231.906 403.24 233.078C402.961 234.25 402.429 235.31 401.646 236.257C400.895 237.203 399.892 237.954 398.635 238.51C397.378 239.098 395.783 239.41 393.85 239.443C391.517 239.484 389.491 238.986 387.773 237.949C386.055 236.912 384.714 235.519 383.75 233.769C382.819 232.018 382.335 230.076 382.298 227.943C382.27 226.377 382.559 224.755 383.163 223.077C383.801 221.433 384.661 220.084 385.743 219.032L390.19 221.705C389.467 222.317 388.815 223.179 388.235 224.289C387.687 225.399 387.424 226.554 387.445 227.753C387.465 228.886 387.733 229.915 388.249 230.84C388.799 231.797 389.562 232.55 390.539 233.1C391.549 233.683 392.738 233.962 394.104 233.938C395.904 233.907 397.311 233.349 398.325 232.264C399.374 231.212 399.882 229.753 399.849 227.887C399.832 226.92 399.752 226.122 399.607 225.491C399.463 224.86 399.303 224.296 399.128 223.799L399.274 223.596L411.252 230.788L410.63 232.399L410.426 220.701L415.525 220.612L415.829 238.06Z" fill="white"/>
<path d="M382.013 204.945C382.042 206.611 381.62 208.202 380.746 209.717C379.872 211.233 378.644 212.488 377.061 213.482C375.478 214.443 373.686 214.941 371.686 214.976C369.253 215.019 367.161 214.505 365.409 213.436C363.656 212.366 362.298 210.956 361.334 209.206C360.336 207.423 359.82 205.532 359.785 203.532C359.745 201.266 360.21 199.224 361.178 197.407C362.147 195.59 363.505 194.133 365.253 193.035C367 191.938 369.007 191.37 371.274 191.33C373.907 191.284 376.315 191.725 378.498 192.654C380.648 193.583 382.62 194.832 384.414 196.401C386.175 197.971 387.806 199.709 389.306 201.617C390.773 203.525 392.156 205.434 393.457 207.345L389.619 210.963C388.204 208.22 386.713 205.846 385.144 203.84C383.542 201.834 381.948 200.278 380.362 199.173C378.775 198.033 377.28 197.393 375.878 197.251L375.902 195.8C377.819 196.733 379.306 197.891 380.364 199.273C381.421 200.621 381.97 202.512 382.013 204.945ZM377.479 203.023C377.447 201.19 376.887 199.683 375.8 198.502C374.679 197.321 373.285 196.746 371.619 196.775L370.619 196.792C369.486 196.845 368.475 197.163 367.585 197.745C366.662 198.328 365.925 199.091 365.375 200.034C364.824 200.977 364.56 202.049 364.581 203.249C364.601 204.415 364.886 205.477 365.436 206.434C365.986 207.391 366.766 208.145 367.776 208.694C368.752 209.21 369.906 209.457 371.24 209.433C372.506 209.411 373.618 209.108 374.574 208.525C375.531 207.942 376.268 207.179 376.785 206.236C377.268 205.261 377.499 204.19 377.479 203.023Z" fill="white"/>
<path d="M415.842 200.57C415.813 198.904 416.235 197.313 417.109 195.797C417.982 194.282 419.211 193.027 420.793 192.033C422.377 191.071 424.169 190.573 426.168 190.539C428.601 190.496 430.694 191.01 432.446 192.079C434.198 193.149 435.556 194.559 436.52 196.309C437.518 198.092 438.035 199.983 438.07 201.983C438.109 204.249 437.645 206.291 436.676 208.108C435.708 209.925 434.35 211.382 432.602 212.48C430.854 213.577 428.847 214.145 426.581 214.185C423.948 214.231 421.54 213.789 419.357 212.861C417.207 211.931 415.235 210.682 413.44 209.113C411.679 207.544 410.049 205.805 408.549 203.898C407.082 201.99 405.698 200.081 404.398 198.17L408.236 194.552C409.65 197.294 411.142 199.669 412.711 201.675C414.312 203.681 415.906 205.237 417.493 206.342C419.079 207.481 420.574 208.122 421.977 208.264L421.952 209.715C420.036 208.782 418.549 207.624 417.491 206.242C416.434 204.894 415.884 203.003 415.842 200.57ZM420.376 202.491C420.408 204.324 420.968 205.832 422.055 207.013C423.176 208.193 424.569 208.769 426.236 208.74L427.236 208.723C428.368 208.67 429.38 208.352 430.27 207.77C431.193 207.187 431.93 206.424 432.48 205.481C433.03 204.538 433.295 203.466 433.274 202.266C433.254 201.1 432.968 200.038 432.418 199.081C431.868 198.124 431.088 197.37 430.078 196.821C429.103 196.305 427.948 196.058 426.615 196.082C425.349 196.104 424.237 196.406 423.28 196.99C422.324 197.573 421.587 198.336 421.07 199.279C420.587 200.254 420.356 201.325 420.376 202.491Z" fill="white"/>
</g>
<rect x="217.005" y="292.847" width="366" height="112" rx="4" transform="rotate(1 217.005 292.847)" fill="#BD1C4C"/>
<path d="M288.567 362.586C287.876 363.044 286.842 363.602 285.465 364.261C284.132 364.877 282.544 365.404 280.701 365.842C278.901 366.28 276.914 366.458 274.739 366.378C271.113 366.272 267.861 365.575 264.982 364.287C262.145 363 259.743 361.273 257.775 359.105C255.808 356.894 254.294 354.392 253.233 351.6C252.216 348.766 251.735 345.77 251.79 342.614C251.851 339.115 252.462 335.926 253.621 333.044C254.782 330.12 256.405 327.588 258.491 325.448C260.619 323.309 263.08 321.666 265.874 320.52C268.71 319.375 271.792 318.831 275.12 318.889C277.978 318.939 280.552 319.368 282.842 320.176C285.133 320.984 287.058 321.914 288.619 322.965L285.819 329.317C284.597 328.443 283.075 327.605 281.254 326.805C279.477 325.964 277.479 325.523 275.261 325.485C273.085 325.447 271.008 325.858 269.03 326.72C267.095 327.54 265.368 328.726 263.847 330.278C262.37 331.789 261.186 333.582 260.297 335.657C259.408 337.69 258.942 339.922 258.9 342.354C258.856 344.828 259.201 347.117 259.932 349.221C260.663 351.324 261.72 353.156 263.101 354.717C264.524 356.278 266.231 357.503 268.221 358.391C270.211 359.279 272.465 359.745 274.982 359.789C277.371 359.831 279.467 359.505 281.272 358.811C283.119 358.117 284.627 357.312 285.795 356.393L288.567 362.586ZM308.479 367.095C305.962 367.051 303.689 366.499 301.659 365.439C299.63 364.337 298.037 362.73 296.879 360.619C295.721 358.508 295.168 355.917 295.222 352.845C295.275 349.816 295.939 347.225 297.214 345.071C298.532 342.917 300.225 341.283 302.292 340.167C304.404 339.009 306.675 338.451 309.107 338.493C311.666 338.538 313.747 339.129 315.349 340.266C316.994 341.362 318.273 342.643 319.186 344.11L318.72 345.126L319.453 339.826L325.532 339.932L325.064 366.744L318.473 366.629L318.59 359.91L319.266 361.522C319.09 361.86 318.719 362.345 318.153 362.975C317.588 363.562 316.83 364.189 315.88 364.855C314.972 365.522 313.895 366.08 312.65 366.527C311.448 366.933 310.058 367.122 308.479 367.095ZM310.365 361.751C311.773 361.775 313.036 361.541 314.154 361.049C315.272 360.556 316.223 359.847 317.007 358.922C317.792 357.997 318.344 356.897 318.665 355.623L318.762 350.056C318.442 348.855 317.884 347.821 317.088 346.954C316.293 346.044 315.324 345.323 314.182 344.791C313.081 344.259 311.849 343.982 310.483 343.958C308.948 343.931 307.533 344.291 306.24 345.036C304.948 345.739 303.906 346.745 303.115 348.054C302.324 349.363 301.913 350.892 301.883 352.641C301.854 354.305 302.211 355.826 302.955 357.205C303.742 358.584 304.789 359.69 306.098 360.524C307.407 361.315 308.829 361.724 310.365 361.751ZM336.029 317.2L342.62 317.315L341.753 367.035L335.162 366.92L336.029 317.2ZM373.776 365.098C372.565 366.058 371.101 366.801 369.385 367.326C367.711 367.851 366.021 368.099 364.315 368.069C361.371 368.018 358.779 367.397 356.538 366.205C354.34 365.015 352.641 363.363 351.44 361.252C350.239 359.14 349.664 356.633 349.715 353.732C349.765 350.874 350.469 348.411 351.828 346.344C353.188 344.234 354.965 342.644 357.16 341.572C359.356 340.459 361.67 339.923 364.101 339.965C366.32 340.004 368.277 340.337 369.973 340.964C371.669 341.591 373.126 342.448 374.345 343.537L371.006 347.767C370.291 347.157 369.384 346.608 368.283 346.119C367.224 345.631 365.991 345.375 364.583 345.35C363.09 345.324 361.718 345.685 360.468 346.431C359.218 347.134 358.219 348.141 357.471 349.451C356.723 350.718 356.335 352.184 356.306 353.847C356.278 355.426 356.615 356.904 357.317 358.282C358.061 359.618 359.088 360.681 360.397 361.472C361.707 362.263 363.214 362.673 364.921 362.703C366.03 362.722 367.056 362.591 368 362.309C368.944 361.984 369.785 361.529 370.52 360.944L373.776 365.098ZM389.835 368.963C387.361 368.92 385.348 368.138 383.795 366.617C382.243 365.096 381.444 363.162 381.4 360.814L381.747 340.913L388.338 341.028L388.032 358.562C388.094 359.928 388.458 361.066 389.125 361.973C389.835 362.839 390.979 363.307 392.557 363.377C394.008 363.403 395.295 362.999 396.419 362.165C397.586 361.289 398.503 360.11 399.169 358.628C399.878 357.104 400.25 355.361 400.284 353.399L400.497 341.241L407.088 341.356L406.62 368.168L400.669 368.064L400.265 361.848L400.503 362.876C399.928 364.061 399.119 365.135 398.078 366.098C397.038 367.019 395.81 367.723 394.393 368.21C392.976 368.74 391.456 368.991 389.835 368.963ZM417.579 318.623L424.17 318.738L423.303 368.459L416.712 368.344L417.579 318.623ZM444.521 369.469C442.004 369.425 439.731 368.874 437.701 367.814C435.672 366.712 434.078 365.105 432.92 362.994C431.762 360.883 431.21 358.291 431.264 355.22C431.317 352.191 431.981 349.599 433.256 347.445C434.574 345.292 436.266 343.657 438.334 342.541C440.445 341.383 442.717 340.825 445.148 340.868C447.708 340.913 449.789 341.504 451.39 342.641C453.036 343.737 454.315 345.018 455.228 346.485L454.762 347.501L455.495 342.201L461.574 342.307L461.106 369.119L454.515 369.004L454.632 362.285L455.308 363.897C455.131 364.235 454.76 364.719 454.195 365.349C453.63 365.937 452.872 366.564 451.921 367.23C451.014 367.897 449.937 368.454 448.692 368.902C447.49 369.308 446.1 369.497 444.521 369.469ZM446.407 364.125C447.815 364.15 449.077 363.916 450.196 363.423C451.314 362.931 452.265 362.222 453.049 361.297C453.833 360.372 454.386 359.272 454.707 357.997L454.804 352.43C454.484 351.23 453.926 350.196 453.13 349.328C452.335 348.418 451.366 347.697 450.223 347.165C449.123 346.634 447.89 346.357 446.525 346.333C444.99 346.306 443.575 346.665 442.282 347.411C440.989 348.114 439.948 349.12 439.157 350.429C438.366 351.738 437.955 353.267 437.924 355.016C437.895 356.68 438.253 358.201 438.997 359.579C439.784 360.959 440.831 362.065 442.139 362.899C443.449 363.69 444.871 364.099 446.407 364.125ZM474.436 330.753L481.027 330.869L480.821 342.707L487.988 342.832L487.897 348.015L480.73 347.89L480.354 369.455L473.763 369.34L474.139 347.775L469.404 347.692L469.494 342.509L474.23 342.592L474.436 330.753ZM492.573 355.97C492.619 353.282 493.301 350.883 494.619 348.772C495.936 346.619 497.736 344.944 500.019 343.746C502.302 342.548 504.893 341.975 507.794 342.025C510.738 342.077 513.308 342.74 515.505 344.016C517.701 345.292 519.378 347.028 520.535 349.225C521.734 351.379 522.311 353.801 522.264 356.488C522.217 359.176 521.556 361.597 520.281 363.751C519.049 365.905 517.312 367.603 515.071 368.844C512.831 370.043 510.218 370.616 507.232 370.564C504.374 370.514 501.824 369.893 499.583 368.702C497.385 367.512 495.643 365.838 494.358 363.682C493.116 361.484 492.521 358.913 492.573 355.97ZM499.226 356.15C499.197 357.814 499.534 359.335 500.235 360.712C500.937 362.047 501.9 363.131 503.123 363.963C504.346 364.753 505.726 365.161 507.262 365.188C508.84 365.215 510.255 364.856 511.505 364.109C512.757 363.321 513.735 362.271 514.441 360.96C515.19 359.608 515.579 358.1 515.608 356.436C515.637 354.772 515.3 353.273 514.598 351.938C513.939 350.603 512.998 349.52 511.775 348.688C510.552 347.856 509.151 347.426 507.572 347.398C505.994 347.371 504.579 347.751 503.328 348.54C502.077 349.329 501.076 350.4 500.327 351.753C499.622 353.063 499.255 354.529 499.226 356.15ZM536.174 343.609L536.68 351.299L536.378 350.269C537.132 348.661 538.18 347.292 539.522 346.164C540.865 345.035 542.245 344.184 543.664 343.612C545.125 342.997 546.347 342.698 547.328 342.715L546.894 349.237C544.848 349.073 543.05 349.426 541.499 350.295C539.99 351.165 538.796 352.339 537.917 353.817C537.037 355.295 536.583 356.887 536.553 358.594L536.346 370.432L529.819 370.318L530.287 343.506L536.174 343.609Z" fill="white"/>
</g>
<defs>
<clipPath id="clip0_15_1260">
<rect width="798" height="532" fill="white"/>
</clipPath>
<clipPath id="clip1_15_1260">
<rect width="798" height="532" fill="white"/>
</clipPath>
<clipPath id="clip2_15_1260">
<rect width="68" height="750" fill="white" transform="translate(399.33 -156) rotate(45)"/>
</clipPath>
<clipPath id="clip3_15_1260">
<rect width="68" height="750" fill="white" transform="translate(881.33 208) rotate(45)"/>
</clipPath>
</defs>
</svg>
